#amk 2
#spc
{
	#author "Mahito Yokota"
	#game	"Super Mario Galaxy"
	#title	"Bowser's Galaxy Reactor"
	#comment "Ported by brickblock369"
}

#path "Bowser's Galaxy Reactor"

#samples
{
"../default/00 SMW @0.brr"
"../default/01 SMW @1.brr"
"../default/02 SMW @2.brr"
"../default/03 SMW @3.brr"
"../default/04 SMW @4.brr"
"../default/05 SMW @8.brr"
"../optimized/06 SMW @22.brr"
"../default/07 SMW @5.brr"
"../default/08 SMW @6.brr"
"../EMPTY.brr"
"../default/0A SMW @9.brr"
"../default/0B SMW @10.brr"
"../default/0C SMW @13.brr"
"../EMPTY.brr"
"../optimized/0E SMW @29.brr"
"../EMPTY.brr"
"../default/10 SMW @12.brr"
"../EMPTY.brr"
"../default/12 SMW @15.brr"
"../optimized/13 SMW Thunder.brr"
"Low Brass.brr"
"OctavePiano.brr"
"OctaveStrings.brr"
"Snare.brr"
"Strings.brr"
"Synth Voice.brr"
"SynthLead.brr"
"Trumpet.brr"
"SynthWah1.brr"
"SynthWah2.brr"
"SynthWah3.brr"
"SynthWah4.brr"
"SynthWah5.brr"
"SynthWah6.brr"
"SynthWah7.brr"
"SynthWah8.brr"
"MinorPiano.brr"
"MajorPiano.brr"
}

#instruments
{

"Low Brass.brr" $8F $E0 $80 $01 $80 ;30
"OctavePiano.brr" $8F $AC $80 $03 $D0 ;31
"OctaveStrings.brr" $8A $E0 $80 $01 $E8 ;32
@0 $8F $E0 $80 $02 $00 ;33
@0 $8F $E0 $80 $02 $00 ;34
"Snare.brr" $8F $E0 $80 $04 $50 ;35
"Strings.brr" $8A $E0 $80 $01 $D7 ;36
"Synth Voice.brr" $8A $E0 $80 $07 $0F ;37
"SynthLead.brr" $8F $F8 $80 $01 $E9 ;38
"Trumpet.brr" $8F $E0 $80 $01 $FE ;39
"SynthWah1.brr" $8F $E0 $80 $05 $00 ;40
"SynthWah2.brr" $8F $E0 $80 $05 $00 ;41
"SynthWah3.brr" $8F $E0 $80 $05 $00 ;42
"SynthWah4.brr" $8F $E0 $80 $05 $00 ;43
"SynthWah5.brr" $8F $E0 $80 $05 $00 ;44
"SynthWah6.brr" $8F $E0 $80 $05 $00 ;45
"SynthWah7.brr" $8F $E0 $80 $05 $00 ;46
"SynthWah8.brr" $8F $E0 $80 $05 $00 ;47
"MinorPiano.brr" $8F $F8 $80 $04 $C7 ;48
"MajorPiano.brr" $8F $F8 $80 $04 $C7 ;49
@1 $8F $E0 $80 $06 $00 ;50
}

$f4$02 

$EF$FF$30$C0
$F1$03$A0$01

w182
#0
t29 v255
@31 o3
r4 b4 > c+4 < c+4 d+1
/
@37 (7)[v110 $F4$01 f+2 f2 e2 d+2 $F4$01]
$F4$01 e2 f+2 f2 d+2 $F4$01
(7)
$F4$01 v140 d+2 f2 d+2 d4$E8$30$00^4 $F4$01
@36 v160
< b1^8 b8
> c+1^8 c+8
< b1^8 b8
> c4. < a+4 > d+4. $ED $2A $1F f8 c8
(14)[@36 $ED $3A $1F v255 f16 f8 f16 f16 f16]8
$FA$02$01 (1)[@36 $ED $3A $1F d+16 d+8 d+16]8 $FA$02$00 (1)8

#1
v180
o5 
(12)[@39 $EE$12
d+8. r16 a+8. r16 g+8. r16 > $EE$0B c+8. r16 d+8. r16 $EE$00]
@30 << v150 a+8. a+=2 q7f ^=1 > c+=2 q7f ^=1 d+=3 g+=3 a+8$E8$46$30^4.
< /
@36 
(5)[r8 v170 a+=23q7f^=1>d+=23q7f^=1a+=23q7f^=1a=47q7f^=1f=47q7f^=1g+4^16$E8$0A$00^16 v200 $ED $3A $1D f+16 f16 @36 f+4$E8$30$30^4 <]
r8 v180 b=23q7f^=1>e=23q7f^=1b=23q7f^=1a+=47q7f^=1f+=47q7f^=1g+4^16$E8$0A$00^16 v200 $ED $3A $1D g16 g+16 @36 a+4$E8$30$30^4 <
(5)
r8 v180 a+=23q7f^=1>d+=23q7f^=1a+=23q7f^=1a=47q7f^=1a+=23q7f^=1>c=23q7f^=1d+2$DD$5F$02d^4$E8$30$30^4
@37 v60  << $E8$70$B0 d+2^8$E8$70$40^2^8
$E8$70$B0 f2^8$E8$70$40^2^8
$E8$70$B0 a+2^8$E8$70$40^2^8 >
$E8$70$B0 c2^8$E8$70$40^2^8
@32 (13)[r8 v182  c=23q7f^=1 f=23q7f^=1 > c=35q7f^=1 < b=11q7f^=1 a=23q7f^=1 b=71q7f^=1 g4$E8$18$50^8  ]
$FA$02$03 (13)
$FA$02$00
@39 r8 q4f < v200 c+8 f+8 > c+8 < q3f b16 g+16 q7f a+4. r8 q4f c+8 f+8 > c+8 < q3f b16 > c+16 q7f d+4 r16 c+32 < b32
a+4^32 r16. f16 r16 > c+4^32 r16. < a+16 r16 > $E8$C0$40 f1

#2
o3
@37 v180 d+4 a+4 g+4 > c+4 $E8$C0$00 d+1
/ @36  $FA$02$00
(4)[r8 v170 f+=23q7f^=1a+=23q7f^=1>f+=23q7f^=1f=47q7f^=1c=47q7f^=1e4^16$E8$0A$00^16 $ED $3A $1D v200 d+16 c+16 @36 d+4$E8$30$30^4 <]
r8 v180 g+=23q7f^=1b=23q7f^=1>g+=23q7f^=1f+=47q7f^=1c+=47q7f^=1d+4^16$E8$0A$00^16 $ED $3A $1D v200 d+16 f16 @36 g4$E8$30$30^4 <
(4)
r8 v180 g=23q7f^=1a+=23q7f^=1>g=23q7f^=1f=47q7f^=1g=23q7f^=1a=23q7f^=1a+2$DD$5F$02g+^4$E8$30$30^4
@37 v60 << $E8$70$B0  g+2^8$E8$70$40^2^8
$E8$70$B0   a+2^8$E8$70$40^2^8
$E8$70$B0   >d+2^8$E8$70$40^2^8
$E8$70$B0   f2^8$E8$70$40^2^8 <
@37 v160 a2. b2. > c2. d2. 
$FA$02$2E v140 (1)6 $FA$02$30 (1)2 $FA$02$2E (1)4 $FA$02$22 (1)4

#3
v200
o2 @36
b4 b4 > c+4 c+4 v225
(1)4
/  v225
$FA$02$00
(1)8
$FA$02$01
(1)4
$FA$02$00
(1)11
$FA$02$FE
(1)
$FA$02$FD
(1)2
$FA$02$02
(1)2
$FA$02$FB
(1)4
$FA$02$00
(10)[@48 v255 d+16 v190 d+16 v220 d+16 v255 f16 v190 f16 v220 f16 v255 d+16 v210 d+16 v255 f16 v210 f16]2
$FA$02$02
(10)2
$FA$02$00
(10)2
$FA$02$02
(10) v255 @49 f+16 v190 f+16 v220 f+16 v255 @48 g+16 v190 g+16 v220 g+16 v255 a+16 v210 a+16 @49 v255 g+16 v210 g+16
@37 v160 $FA$02$00 f2. g2. g+2. a+2.
$FA$02$27 v140 (1)6 $FA$02$29 (1)2 $FA$02$26 (1)4 $FA$02$1A (1)4

#4 
@50 v140 o4 q3f y5  a+32 < a+32 > d+32 a+32 < a+32 > d+32 $DC$60$0E a+32 < a+32 >  d+32 a+32 < a+32 > d+32       a+32         d+32 a+32 > d+32 < d+32 a+32 > d+32 < d+32 a+32 > d+32 < d+32 a+32 >  d+32 < d+32 a+32 > d+32
 < d+32 $DC$50$05 g+32 > c+32 f32       d+32 < a+32 > f32 d+32 < a+32 > f32 $DC$90$0E  d+32 < a+32 > f32 d+32 < a+32 > f32 d+32 < a+32 > f32       
 d+32 c+32 $E8$40$40  g+32 > c+32 <  d+32 g+32 >  c+32 < d+32  g+32 > c+32 < d+32 g+32 > c+32 < d+32 g+32 > c+32 < d+32
 / $F4$03
v255 o2 q7F y10
@40 $FA$02$00 (3)[d+32 r32 d+32 r32 r16] @42 (2)[d+32 r32 d+32 r32 d+32 r32 r16] @44 (2) @46 (2) @47 (2) @45 (2) @43 (2) @41 (2) @40 d+32 r32
@40 $FA$02$01(3) @42 (2) @44 (2) @46 d+32 r32 d+32 r32 d+32 r32 r16 d+32 r32 $FA$02$00 @47 (3) @45 (2) @43 (2) @41 (2) @40 d+32 r32
@40  (3) @42 (2) @44 (2) @46 (2) @47 (2) @45 (2) @43 (2) d+32 r32 @41 $FA$02$FE (3) @40 d+32 r32
@40  $FA$02$FD (3) @42 (2) @44 d+32 r32 $FA$02$02 (3) @46 (2) @47 d+32 r32 $FA$02$FB (3) @45 (2) @43 (2) @41 (2) @40 d+32 r32
@37 v60 $F4$03 [$FA$02$00 $E8$70$EF d+2^8$E8$70$40^2^8
$E8$70$EF f2^8$E8$70$40^2^8]2 >
@37 v200 c2. d2. d+2. f2.
@39 r8 q4f $EE$10 > c+8 f+8 > c+8 < q3f b16 g+16 q7f a+4. r8 q4f c+8 f+8 > c+8 < $EE$00 q3f g+16 a+16 q7f b4 r16 a+32 g+32
f4^32 r16. c+16 r16 a+4^32 r16. f16 r16 > $E8$C0$40 c+1

#5 
o2
@37 v180 a+4 > d+4 c+4 f4 $E8$C0$00 a+1
$F4$03 /
 o4
@35 (8)[v190 d16 v150 d8 v170 d16]7
(9)[v190 d16 v150 d8 v170 d48 v120 d48 v140 d48]
[[(8)7
(9)]]3
[ [[v190 d16 v170 d32 v140 d32 v155 d32 v140 d32]]2 [[v190 d16 v170 d32 v140 d32]]2 ]8
[v180 d16 v190 d8 v160 d16 v190 d16 v160 d16]8
[[(8)7
(9)]]2

#6
o2
@37 v180 f+4 a+4 g+4 > g+4 $E8$C0$00 g+1
$F4$03/$F4$03
o3
@37 (6)[v110 a+2 a2 g+2 f+2]
g+2 a+2 g+2 g2
(6)
g2 a2 a+2 g+4$E8$30$00^4
@37 v60 $FA$02$00 $E8$70$C0 d+2^8$E8$70$40^2^8
$E8$70$C0 f2^8$E8$70$40^2^8
@38 v135 >> y5 $DC$30$0F (11)[l16 d+<a+>fa+d+f]d+<a+>d+f $DC$30$05 (11)d+<a+>f<a+ >$DC$30$0F d+f<a+>d+<a+>a+d+ $DC$30$05f<a+>d+fd+$E8$20$70a+d+fa+>c<fa+c
y10 $FA$02$F4(14)8 $FA$02$00
@40 $FA$02$01 v200 <<< $F4$03 (15)[d+32 r32 d+32 r32] @41 (15) @42 (15) @43 (15) @44 (15) @45 (15) @46 (15) @47 (15)2 @46 (15) @45 (15) @44 (15) @43 (15) @42 (15) @41 (15) @40 (15)
@40 $FA$02$00 (15) @41 (15) @42 (15) @43 (15) @44 (15) @45 (15) @46 (15) @47 (15)2 @46 (15) @45 (15) @44 (15) @43 (15) @42 (15) @41 (15) @40 (15)

#7
$FA$02$F4 v150
(12) r2.
 / $FA$02$00 v255
@31 o3
d+1 @37 < v80 b2 a+2 >
@31 v255 e1 @37 v80 < a+2. > @31 v255 a+4
d+1
@37 v80 < b2 a+4 g+4 v110 a+2 > c2 f2 <b-4$E8$30$00^4
@31 v255 
b1^8 b8
> c+1^8 c+8
< b1^8 b8
> c4. < a+4 > d+4. $ED $2F $1F f8 c8 >
@31 v255 < f1^2 f1^2
$FA$02$2B v140 (1)6 $FA$02$2C (1)2 $FA$02$2B (1)4 $FA$02$1F (1)4